<mxfile host="app.diagrams.net" modified="2023-05-30T09:04:20.032Z" agent="Mozilla/5.0 (Windows NT 10.0; Win64; x64) AppleWebKit/537.36 (KHTML, like Gecko) Chrome/113.0.0.0 Safari/537.36" etag="Job6OYUc56BmSVgmQh9Q" version="21.3.2" type="github">
  <diagram name="第 1 页" id="hVu2z8mpdHJjlXj4GvR-">
    <mxGraphModel dx="1434" dy="708" grid="1" gridSize="10" guides="1" tooltips="1" connect="1" arrows="1" fold="1" page="1" pageScale="1" pageWidth="827" pageHeight="1169" math="0" shadow="0">
      <root>
        <mxCell id="0" />
        <mxCell id="1" parent="0" />
        <mxCell id="TOUn0AKEe__treHXRNEl-1" value="" style="rounded=0;whiteSpace=wrap;html=1;fillColor=none;strokeWidth=3;" parent="1" vertex="1">
          <mxGeometry x="260" y="270" width="280" height="250" as="geometry" />
        </mxCell>
        <mxCell id="TOUn0AKEe__treHXRNEl-3" value="RFID技术" style="rounded=0;whiteSpace=wrap;html=1;fillColor=none;" parent="1" vertex="1">
          <mxGeometry x="280" y="320" width="240" height="40" as="geometry" />
        </mxCell>
        <mxCell id="TOUn0AKEe__treHXRNEl-4" value="传感网络技术" style="rounded=0;whiteSpace=wrap;html=1;fillColor=none;" parent="1" vertex="1">
          <mxGeometry x="280" y="370" width="240" height="40" as="geometry" />
        </mxCell>
        <mxCell id="TOUn0AKEe__treHXRNEl-5" value="无线通讯技术" style="rounded=0;whiteSpace=wrap;html=1;fillColor=none;" parent="1" vertex="1">
          <mxGeometry x="280" y="420" width="240" height="40" as="geometry" />
        </mxCell>
        <mxCell id="TOUn0AKEe__treHXRNEl-6" value="标准及安全体系" style="rounded=0;whiteSpace=wrap;html=1;fillColor=none;" parent="1" vertex="1">
          <mxGeometry x="280" y="470" width="240" height="40" as="geometry" />
        </mxCell>
        <mxCell id="TOUn0AKEe__treHXRNEl-7" value="电动汽车车联网关键技术" style="text;html=1;strokeColor=none;fillColor=none;align=center;verticalAlign=middle;whiteSpace=wrap;rounded=0;fontStyle=1;fontSize=14;" parent="1" vertex="1">
          <mxGeometry x="255" y="280" width="290" height="30" as="geometry" />
        </mxCell>
      </root>
    </mxGraphModel>
  </diagram>
</mxfile>
